HIERARCHY
ROOT Hips
{
    OFFSET 0.000000 0.000000 0.000000
    CHANNELS 6 Xposition Yposition Zposition Zrotation Xrotation Yrotation
    JOINT Spine
    {
        OFFSET -0.000000 14.517291 0.000000
        CHANNELS 3 Zrotation Xrotation Yrotation
        JOINT Spine1
        {
            OFFSET -0.000000 37.558300 0.000000
            CHANNELS 3 Zrotation Xrotation Yrotation
            JOINT Neck
            {
                OFFSET -0.000000 37.404057 3.400369
                CHANNELS 3 Zrotation Xrotation Yrotation
                JOINT Head
                {
                    OFFSET -0.000000 24.785618 -3.540803
                    CHANNELS 3 Zrotation Xrotation Yrotation
                    End Site
                    {
                        OFFSET -0.000000 35.408028 0.000000
                    }
                }
            }
            JOINT LeftShoulder
            {
                OFFSET 6.992933 33.973492 -0.192664
                CHANNELS 3 Zrotation Xrotation Yrotation
                JOINT LeftArm
                {
                    OFFSET 21.527611 0.000000 0.000000
                    CHANNELS 3 Zrotation Xrotation Yrotation
                    JOINT LeftForeArm
                    {
                        OFFSET 56.353916 0.000000 0.000000
                        CHANNELS 3 Zrotation Xrotation Yrotation
                        JOINT LeftHand
                        {
                            OFFSET 47.774071 0.000000 0.000000
                            CHANNELS 3 Zrotation Xrotation Yrotation
                            End Site
                            {
                                OFFSET 26.556021 0.000000 0.000000
                            }
                        }
                    }
                }
            }
            JOINT RightShoulder
            {
                OFFSET -7.065357 33.973492 -0.192664
                CHANNELS 3 Zrotation Xrotation Yrotation
                JOINT RightArm
                {
                    OFFSET -21.527611 0.000000 0.000000
                    CHANNELS 3 Zrotation Xrotation Yrotation
                    JOINT RightForeArm
                    {
                        OFFSET -56.353916 0.000000 0.000000
                        CHANNELS 3 Zrotation Xrotation Yrotation
                        JOINT RightHand
                        {
                            OFFSET -47.774071 0.000000 0.000000
                            CHANNELS 3 Zrotation Xrotation Yrotation
                            End Site
                            {
                                OFFSET -26.556021 0.000000 0.000000
                            }
                        }
                    }
                }
            }
        }
    }
    JOINT LeftUpLeg
    {
        OFFSET 17.704014 0.000000 0.000000
        CHANNELS 3 Zrotation Xrotation Yrotation
        JOINT LeftLeg
        {
            OFFSET -0.000000 -81.181816 0.000000
            CHANNELS 3 Zrotation Xrotation Yrotation
            JOINT LeftFoot
            {
                OFFSET -0.000000 -62.821102 0.000000
                CHANNELS 3 Zrotation Xrotation Yrotation
                JOINT LeftToeBase
                {
                    OFFSET -0.000000 -11.507608 26.556021
                    CHANNELS 3 Zrotation Xrotation Yrotation
                    End Site
                    {
                        OFFSET -0.000000 0.000000 7.081605
                    }
                }
            }
        }
    }
    JOINT RightUpLeg
    {
        OFFSET -17.704014 0.000000 0.000000
        CHANNELS 3 Zrotation Xrotation Yrotation
        JOINT RightLeg
        {
            OFFSET -0.000000 -81.181816 0.000000
            CHANNELS 3 Zrotation Xrotation Yrotation
            JOINT RightFoot
            {
                OFFSET -0.000000 -62.821102 0.000000
                CHANNELS 3 Zrotation Xrotation Yrotation
                JOINT RightToeBase
                {
                    OFFSET -0.000000 -11.507608 26.556021
                    CHANNELS 3 Zrotation Xrotation Yrotation
                    End Site
                    {
                        OFFSET -0.000000 0.000000 7.081605
                    }
                }
            }
        }
    }
}
MOTION
Frames:    12
Frame Time:    0.008333
-13.186821    157.322449    -102.036758    -12.064890    38.337917    35.790516    8.714312    6.146676    -1.610574    -3.499109    -0.703189    -0.408879    10.949987    -6.557394    -11.945376    3.675042    -0.121097    -14.183628    8.861483    7.387262    -18.718891    -34.007202    20.076815    -49.093121    -6.673635    -13.913280    -114.416512    4.439081    -23.912844    -4.847255    -11.908644    -6.560804    -4.329879    22.003887    -23.209240    57.479069    -14.567023    -16.796143    44.162395    2.176952    -10.427549    31.280817    7.576958    -28.219830    3.984608    -8.101019    12.982637    -13.695256    -11.317282    -12.688006    44.849716    0.000000    0.000000    0.000000    -37.011688    -64.466286    -31.215302    17.528721    35.446140    -14.330223    -8.055714    -3.667031    -10.633455    0.000000    0.000000    0.000000    
-13.156409    157.353729    -102.123260    -12.028373    38.294067    35.766083    8.669865    6.102612    -1.607384    -3.495628    -0.688988    -0.409324    10.946628    -6.572384    -11.948458    3.675652    -0.068670    -14.189221    8.869498    7.409359    -18.745619    -34.001110    20.069641    -49.156315    -6.650187    -13.937775    -114.420776    4.456996    -23.902227    -4.805569    -11.902859    -6.597736    -4.305767    21.971424    -23.150288    57.422604    -14.558880    -16.823799    44.177303    2.170130    -10.458383    31.310112    7.566862    -28.222490    4.105422    -8.101004    13.058016    -13.763305    -11.314735    -12.668983    44.810654    0.000000    0.000000    0.000000    -36.942982    -64.447243    -31.110098    17.474787    35.406872    -14.274169    -8.042057    -3.530280    -10.704308    0.000000    0.000000    0.000000    
-13.122019    157.376999    -102.189041    -11.989223    38.182484    35.753891    8.662966    6.084800    -1.615525    -3.485949    -0.654522    -0.411385    10.785135    -6.615983    -12.003301    3.882118    0.057747    -14.192345    8.812735    7.387674    -18.747154    -33.921143    20.144358    -49.204010    -6.640117    -14.008500    -114.430496    4.396164    -23.953938    -4.809865    -11.922328    -6.571722    -4.322467    22.089746    -23.250389    57.476181    -14.432430    -16.721703    44.253613    2.143631    -10.402477    31.244509    7.592268    -28.161537    4.190108    -8.120492    13.123819    -13.784055    -11.286271    -12.652978    44.740814    0.000000    0.000000    0.000000    -36.732990    -64.366249    -30.925806    17.368748    35.369473    -14.204950    -8.004637    -3.448377    -10.745412    0.000000    0.000000    0.000000    
-13.079223    157.397598    -102.273262    -11.931512    38.067730    35.722275    8.653913    6.071225    -1.622480    -3.516289    -0.630186    -0.413486    10.730762    -6.609149    -12.027833    3.984304    0.102651    -14.193366    8.831071    7.395780    -18.759560    -33.904953    20.182377    -49.273678    -6.579298    -14.075457    -114.401802    4.365353    -23.925154    -4.861207    -11.896005    -6.562989    -4.339905    22.132105    -23.252346    57.500523    -14.430762    -16.689968    44.265083    2.170438    -10.360192    31.312958    7.594031    -28.094023    4.277645    -8.119697    13.201224    -13.803358    -11.272167    -12.665849    44.664669    0.000000    0.000000    0.000000    -36.531200    -64.286598    -30.753065    17.245794    35.342171    -14.186958    -7.982251    -3.370445    -10.702591    0.000000    0.000000    0.000000    
-13.036287    157.418869    -102.364349    -11.865023    37.957047    35.687916    8.606718    6.056027    -1.621145    -3.497811    -0.619023    -0.413672    10.608953    -6.602396    -12.088503    4.138006    0.175058    -14.211971    8.810519    7.419060    -18.779404    -33.894970    20.177078    -49.333019    -6.576415    -14.059553    -114.394318    4.419535    -23.907314    -4.872844    -11.932343    -6.524361    -4.363202    22.100397    -23.163298    57.477375    -14.548710    -16.783155    44.240738    2.208985    -10.402661    31.218735    7.587820    -28.028170    4.341984    -8.120628    13.280846    -13.812155    -11.269873    -12.680372    44.571884    0.000000    0.000000    0.000000    -36.384655    -64.183205    -30.535013    17.234592    35.265503    -14.215885    -7.975640    -3.265202    -10.719499    0.000000    0.000000    0.000000    
-12.999457    157.436646    -102.445648    -11.805322    37.827591    35.657867    8.541636    6.023973    -1.628227    -3.468398    -0.597231    -0.417100    10.570911    -6.557857    -12.120439    4.226989    0.186900    -14.221412    8.796486    7.439624    -18.789440    -33.830532    20.250950    -49.402206    -6.529674    -14.176229    -114.355583    4.331461    -23.942253    -4.939003    -11.926063    -6.509844    -4.321343    22.113703    -23.191061    57.425934    -14.528476    -16.749699    44.284790    2.151755    -10.385623    31.226955    7.602570    -27.948004    4.397011    -8.131006    13.353258    -13.807754    -11.256490    -12.693965    44.495373    0.000000    0.000000    0.000000    -36.177094    -64.071060    -30.273092    17.196314    35.140182    -14.207047    -7.955250    -3.103761    -10.771680    0.000000    0.000000    0.000000    
-12.957197    157.456909    -102.536407    -11.736124    37.699589    35.619965    8.482129    5.993750    -1.635954    -3.444006    -0.569956    -0.420275    10.325917    -6.536560    -12.231074    4.542471    0.256269    -14.243246    8.749727    7.448741    -18.804380    -33.761562    20.316238    -49.426826    -6.483703    -14.256378    -114.360443    4.343419    -23.953333    -4.941498    -11.972278    -6.491811    -4.340344    22.315916    -23.350571    57.499428    -14.337630    -16.537687    44.393368    2.104243    -10.243309    31.216366    7.609254    -27.867998    4.425464    -8.151444    13.427114    -13.792358    -11.242950    -12.709127    44.431839    0.000000    0.000000    0.000000    -35.983364    -63.953701    -30.016449    17.162336    35.059601    -14.191633    -7.928442    -3.028810    -10.810044    0.000000    0.000000    0.000000    
-12.924324    157.477829    -102.630341    -11.678535    37.536732    35.589554    8.442721    5.973858    -1.653799    -3.470710    -0.539445    -0.426408    10.349000    -6.502523    -12.263145    4.590458    0.241207    -14.271233    8.759787    7.441656    -18.807076    -33.763073    20.327826    -49.486980    -6.477367    -14.250153    -114.274811    4.486628    -23.934311    -5.092947    -11.902497    -6.476294    -4.349971    22.202948    -23.249025    57.483597    -14.488754    -16.651745    44.305279    2.189171    -10.286525    31.292950    7.646905    -27.771814    4.440154    -8.174001    13.508413    -13.763467    -11.205647    -12.723598    44.347458    0.000000    0.000000    0.000000    -35.718090    -63.809963    -29.707678    17.150024    34.962563    -14.202089    -7.937586    -2.952741    -10.875385    0.000000    0.000000    0.000000    
-12.885085    157.501740    -102.719925    -11.631304    37.338993    35.576340    8.405163    5.982119    -1.692480    -3.430384    -0.525179    -0.439126    10.233660    -6.510243    -12.334978    4.724329    0.302461    -14.307075    8.725324    7.454821    -18.792475    -33.796608    20.308399    -49.481579    -6.546378    -14.144420    -114.327171    4.461527    -23.933590    -4.863565    -11.935097    -6.476980    -4.342197    22.323166    -23.325584    57.498199    -14.410160    -16.517445    44.385670    2.149668    -10.180567    31.259840    7.702575    -27.665113    4.450711    -8.186170    13.620986    -13.795649    -11.175858    -12.766230    44.303692    0.000000    0.000000    0.000000    -35.403976    -63.638031    -29.402172    17.077982    34.829849    -14.155196    -7.882685    -2.800855    -10.928050    0.000000    0.000000    0.000000    
-12.856425    157.532028    -102.839745    -11.580051    37.193077    35.536694    8.345190    5.938571    -1.697079    -3.471814    -0.508885    -0.442295    10.272993    -6.454082    -12.380314    4.768048    0.275134    -14.350379    8.750668    7.474119    -18.829128    -33.728653    20.377359    -49.511429    -6.489975    -14.282692    -114.284409    4.415479    -23.975702    -4.919476    -11.901505    -6.452637    -4.324537    22.393000    -23.431877    57.495495    -14.284911    -16.418762    44.441532    2.075863    -10.141476    31.326920    7.740135    -27.612988    4.449593    -8.212166    13.745534    -13.768569    -11.169346    -12.804151    44.252522    0.000000    0.000000    0.000000    -35.150360    -63.529205    -29.118935    17.009304    34.732960    -14.104467    -7.835000    -2.665563    -10.990979    0.000000    0.000000    0.000000    
-12.827167    157.557938    -102.965614    -11.514186    36.997490    35.450897    8.272282    5.946771    -1.712144    -3.442592    -0.474446    -0.447092    10.200244    -6.441828    -12.440795    4.855382    0.265509    -14.384947    8.699083    7.445817    -18.807919    -33.687984    20.428204    -49.504433    -6.460617    -14.320023    -114.243027    4.566410    -23.974388    -5.104021    -11.943648    -6.463202    -4.327526    22.444996    -23.413897    57.522907    -14.316773    -16.429947    44.454376    2.005786    -10.159303    31.223614    7.819997    -27.508781    4.443612    -8.257452    13.875352    -13.714860    -11.108522    -12.855688    44.195618    0.000000    0.000000    0.000000    -34.749470    -63.405403    -28.717100    16.905502    34.627930    -14.047741    -7.765051    -2.522516    -11.032188    0.000000    0.000000    0.000000    
-12.799315    157.589142    -103.086105    -11.468908    36.759113    35.383938    8.255691    5.969577    -1.730776    -3.466856    -0.460199    -0.452670    10.153703    -6.444807    -12.491455    4.939950    0.314178    -14.418958    8.687446    7.462907    -18.811131    -33.677029    20.388968    -49.473564    -6.509896    -14.242504    -114.222961    4.652630    -23.970352    -5.068006    -11.920574    -6.467017    -4.315795    22.414175    -23.380095    57.509216    -14.361953    -16.448746    44.455791    2.099220    -10.134139    31.228775    7.932161    -27.390507    4.450291    -8.294348    14.029304    -13.694863    -11.053288    -12.921590    44.153923    0.000000    0.000000    0.000000    -34.211422    -63.245186    -28.314707    16.667356    34.514786    -13.944530    -7.678419    -2.400721    -10.974612    0.000000    0.000000    0.000000    
